<?xml version="1.0" encoding="utf-8"?><svg xmlns="http://www.w3.org/2000/svg" viewBox="0 0 71.93 19.84"><defs><style>.cls-1{fill:#e70000;}.cls-2{fill:#4da162;}.cls-3{fill:#009957;}.cls-4{fill:#fff;}</style></defs><title>Ресурс 10</title><g id="Слой_2" data-name="Слой 2"><g id="Слой_1-2" data-name="Слой 1"><g id="auchan-clr"><g id="auchan"><path id="Path" class="cls-1" d="M20.44,5.69a4,4,0,0,0,.88-.5,2.45,2.45,0,0,1-.61-.45,2.76,2.76,0,0,0-2.54-1.16,2.59,2.59,0,0,0-2.85,2.5,2.08,2.08,0,0,0,0,.45,19.69,19.69,0,0,0-7.54,5.8h6.6a4.76,4.76,0,0,0-1.41.76l.54,1.9a7.73,7.73,0,0,0,2.55-.61,7.32,7.32,0,0,0,4-4.56c.09-.32.48-2,.53-2.22a1.86,1.86,0,0,1,.68-1.16,4.16,4.16,0,0,0-.9-.59C20.3,5.79,20.3,5.74,20.44,5.69Z"/><path id="Path-2" data-name="Path" class="cls-2" d="M18.36,4.68a1,1,0,1,0,1,1A1,1,0,0,0,18.36,4.68Z"/><path id="Path-3" data-name="Path" class="cls-1" d="M16.18,0H6.72L3.6,9.11h4.9c.16-.12.39-.32.69-.51l2.15-7,1.47,4.81L13.72,6c.11-1.9,1.54-3,3.41-3.17Z"/><path id="Path-4" data-name="Path" class="cls-1" d="M2.37,12.74,0,19.62H5.73L7.43,14.2H3.57a5.33,5.33,0,0,1,.71-1.46Z"/><path id="Path-5" data-name="Path" class="cls-2" d="M14.59,14.85,16,19.61h1.49l-1.59-5.18A7.75,7.75,0,0,1,14.59,14.85Z"/><path id="Path-6" data-name="Path" class="cls-1" d="M20,11.18a7.77,7.77,0,0,1-3.58,3.49l1.47,4.94h5Z"/><path id="Path-7" data-name="Path" class="cls-2" d="M23.71,5.64a4.93,4.93,0,0,0-1.8-.36,1.66,1.66,0,0,1-.58-.09,4,4,0,0,1-.88.5c-.14.05-.14.1,0,.15a4.16,4.16,0,0,1,.9.59c.59-.43,1.08-.06,2.36-.63.14-.05.13-.1,0-.15Z"/><path id="Path-8" data-name="Path" class="cls-3" d="M1.82,10.84l.05.05-.05.05A1.52,1.52,0,0,0,.26,12.29H5.19a4.74,4.74,0,0,0-1,1.49H11.7l1.73,5.84h1.51L13.54,15,13,13.09a4.76,4.76,0,0,1,1.41-.76H7.78a19.72,19.72,0,0,1,7.54-5.8,2.08,2.08,0,0,1,0-.45,2.6,2.6,0,0,1,2.85-2.5,3.32,3.32,0,0,1,2,.54,4.14,4.14,0,0,0-2.49-.9c-2.24,0-3.59,1.45-3.49,3.06A29,29,0,0,0,8.65,9.52H.27a1.49,1.49,0,0,0,1.55,1.31Z"/><path id="Path-9" data-name="Path" class="cls-4" d="M18.32,5.81l1-.49a1,1,0,0,0-.63-.59l-.45,1c0,.11,0,.15.11.1Z"/><path id="Path-10" data-name="Path" class="cls-1" d="M43.58,7.17H39.26v5.43c0,2.14-.71,3.49-2.22,3.49-1.13,0-1.7-.74-1.7-2.82V7.17H31.22v5.43c0,2.14-.72,3.49-2.22,3.49-1.14,0-1.7-.74-1.7-2.82V7.15H22.58v7.4c0,3.9,2.08,5.07,4.71,5.27A5.56,5.56,0,0,0,31.53,18a4.78,4.78,0,0,0,3.81,1.8A5.58,5.58,0,0,0,39.57,18v1.59h4.07l-.07,0V7.16Z"/><path id="Shape" class="cls-1" d="M57,13.34A13.47,13.47,0,0,0,56.65,10a4.89,4.89,0,0,0-4-3,9.16,9.16,0,0,0-1.82-.17A10.77,10.77,0,0,0,46,7.87v3.07a9.56,9.56,0,0,1,3.63-1.11,7.93,7.93,0,0,1,1.15.06c.91.13,1.76.54,1.83,1.77,0,0-.63,0-1.53,0h-.3c-2.85,0-6.25.68-6.31,4.09-.05,2.77,2.39,4,4.52,4a5.48,5.48,0,0,0,1.79-.27A4.39,4.39,0,0,0,52.94,18a8.85,8.85,0,0,0,.1,1.57h4.05S57,17.49,57,13.34Zm-6.14,3.44c-.9.18-1.81-.21-1.86-1.16s.91-1.31,1.86-1.42a5.62,5.62,0,0,1,1.86.06A2.4,2.4,0,0,1,50.82,16.79Z"/><polygon id="Path-11" data-name="Path" class="cls-1" points="67.35 7.17 67.35 12.26 63.15 12.26 63.17 7.17 58.58 7.17 58.6 19.62 63.14 19.62 63.15 15.06 67.35 15.06 67.36 19.62 71.9 19.62 71.93 7.17 67.35 7.17"/></g></g></g></g></svg>