<?xml version="1.0" encoding="utf-8"?><svg xmlns="http://www.w3.org/2000/svg" viewBox="0 0 70.4 33.64"><defs><style>.cls-1{fill:#0670b8;}</style></defs><title>Ресурс 12</title><g id="Слой_2" data-name="Слой 2"><g id="Слой_1-2" data-name="Слой 1"><g id="gazprom-clr"><g id="gazprom-neft"><path id="_Составной_контур_" data-name="&lt;Составной контур&gt;" class="cls-1" d="M57.67,20.45a.49.49,0,0,1-.5-.47V12a.5.5,0,0,1,1,0v8a.48.48,0,0,1-.5.47m.93-10.29H56.73c-1.58,0-1.67,1.28-1.67,2.1v7.54c0,.82.09,2.1,1.67,2.1H58.6c1.58,0,1.68-1.27,1.68-2.1V12.26c0-.82-.1-2.1-1.68-2.1"/><polygon id="_Контур_" data-name="&lt;Контур&gt;" class="cls-1" points="23.47 10.17 27.77 10.17 27.77 11.62 25.72 11.62 25.72 21.9 23.47 21.9 23.47 10.17"/><path id="_Составной_контур_2" data-name="&lt;Составной контур&gt;" class="cls-1" d="M28.1,21.9h2.2l.21-3.12h1.06l.21,3.12H34L32.82,10.17H29.28Zm2.49-4.41L31,11.62h.13l.39,5.87Z"/><path id="_Контур_2" data-name="&lt;Контур&gt;" class="cls-1" d="M37.22,17.79V20a.35.35,0,0,0,.35.39.37.37,0,0,0,.35-.39V17.27c0-.37-.06-.77-.9-.77h-.91V15.21h.95c.64,0,.87-.15.87-.87V12a.37.37,0,0,0-.35-.38.35.35,0,0,0-.35.38v1.91H35V12.26c0-.82.1-2.1,1.67-2.1h1.87c1.58,0,1.67,1.28,1.67,2.1v1.88a1.41,1.41,0,0,1-1.53,1.59v.12a1.38,1.38,0,0,1,1.53,1.59v2.36c0,.82-.1,2.1-1.67,2.1H36.64c-1.58,0-1.67-1.27-1.67-2.1v-2h2.26Z"/><polygon id="_Контур_3" data-name="&lt;Контур&gt;" class="cls-1" points="41.67 10.17 46.88 10.17 46.88 21.9 44.78 21.9 44.78 11.62 43.77 11.62 43.77 21.9 41.67 21.9 41.67 10.17"/><path id="_Составной_контур_3" data-name="&lt;Составной контур&gt;" class="cls-1" d="M48.51,21.9h2.25v-4h1.29c1.58,0,1.83-1.27,1.83-2.1V12.26c0-.82-.25-2.1-1.83-2.1H48.51Zm2.25-5.28v-5h.59c.24,0,.42.22.42.58V16c0,.37-.18.58-.42.58Z"/><polygon id="_Контур_4" data-name="&lt;Контур&gt;" class="cls-1" points="67.47 10.17 70.4 10.17 70.4 21.9 68.15 21.9 68.15 14.54 68.07 14.54 66.91 21.9 65.1 21.9 63.94 14.54 63.87 14.54 63.87 21.9 61.61 21.9 61.61 10.17 64.54 10.17 66 18.41 67.47 10.17"/><path id="_Составной_контур_4" data-name="&lt;Составной контур&gt;" class="cls-1" d="M18.66,11.36a16.92,16.92,0,0,1-.35,3.2A19.82,19.82,0,0,0,17.92,10a19.72,19.72,0,0,0-1.81-4.9A19.6,19.6,0,0,0,14.32,10a23,23,0,0,0-.41,4.6,22.65,22.65,0,0,1-.3-4.45,19.8,19.8,0,0,1,.65-4,21.84,21.84,0,0,1,1.85-4.44A19.93,19.93,0,0,1,18,6a19.49,19.49,0,0,1,.67,5.32m-2.54,9.11a8.5,8.5,0,0,1-.95-3.85,8.07,8.07,0,0,1,1-3.82,8.69,8.69,0,0,1,.92,3.65,8.22,8.22,0,0,1-.93,4m2.74-14.4A19.71,19.71,0,0,0,16.12,0a21,21,0,0,0-2.54,5.3A19.25,19.25,0,0,0,13,13a21.19,21.19,0,0,0,1.3,4.9,17.19,17.19,0,0,0,1.89,3.39,18.35,18.35,0,0,0,3.12-8,18,18,0,0,0-.39-7.22"/><path id="_Контур_5" data-name="&lt;Контур&gt;" class="cls-1" d="M11.75,21.9v3.69h0a3.31,3.31,0,0,1,4.67,0,3.28,3.28,0,0,1,0,4.65l0,0h0l0,0A6.59,6.59,0,0,1,6.28,21.93a6.39,6.39,0,0,1,.81-1A6.59,6.59,0,0,1,11.75,19v-8.8a11.7,11.7,0,1,0,8.58,19.7v-8Z"/><path id="_Составной_контур_5" data-name="&lt;Составной контур&gt;" class="cls-1" d="M68.3,30.86c0,1.12-.51,1.31-1.8,1.31H65.31V27.08h1.19v2h.2c1.17,0,1.6.27,1.6,1.29ZM58.37,28h-.9v4.14H56.34V28h-1v-1h3v1Zm-9.15,2.31c0,1-.53,1.31-1.7,1.31v.5H46.36v-.5c-1.18,0-1.71-.28-1.71-1.31V28.77c0-1,.51-1.3,1.71-1.3v-.38h1.16v.38c1.19,0,1.7.26,1.7,1.3ZM38.43,28H36.8v1h1.46v1H36.8v1.2h1.63v1H35.57v-5.1h2.86Zm-9.87,4.13H27.37V29.95h-.61v2.23H25.57V27.08h1.19v2h.61v-2h1.19ZM70.4,25.81H23.47v7.82H70.4V25.81ZM45.81,28.73v1.63c0,.3.1.37.36.37h.19V28.36h-.19C45.91,28.36,45.81,28.44,45.81,28.73Zm20.95,1.21h-.26v1.33h.26c.27,0,.35-.07.35-.36V30.3C67.11,30,67,29.95,66.76,29.95ZM47.7,28.36h-.18v2.37h.18c.26,0,.36-.08.36-.38V28.72C48.06,28.42,48,28.36,47.7,28.36Z"/></g></g></g></g></svg>