<?xml version="1.0" encoding="utf-8"?><svg xmlns="http://www.w3.org/2000/svg" viewBox="0 0 298.01 298.23"><defs><style>.cls-1{fill:#afadbe;}</style></defs><title>13</title><g id="Слой_2" data-name="Слой 2"><g id="Слой_1-2" data-name="Слой 1"><g id="Слой_2-2" data-name="Слой 2"><g id="Слой_1-2-2" data-name="Слой 1-2"><path class="cls-1" d="M11,269.18H35.33V249.75H46.24v47.93H35.33v-20H11v20H.08V249.75H11Z"/><path class="cls-1" d="M66,278.47c0,8.47,2.67,12,11.71,12s11.63-3.55,11.63-12V249.75h10.93v29c0,6.12-.74,10.33-3.07,12.9-4.24,4.66-10.48,6.58-19.49,6.58s-15.32-1.92-19.6-6.58c-2.37-2.6-3-6.82-3-12.9v-29H66Z"/><path class="cls-1" d="M122.17,277.76h15.48l-7.88-18.45Zm13.81-28,22.12,47.93H146l-4.78-11.4H118.6L114,297.69H102.43l22-47.93Z"/><path class="cls-1" d="M163,249.76l12,36.85,10.12-36.85H198l11.6,36.85,11.21-36.85H232l-16,47.93H202.67L191.6,261.94l-9.67,35.75H168.6l-17.29-47.93Z"/><path class="cls-1" d="M246.78,269.24H277v8.33H246.71c.07,8.65,3.74,11.79,12.37,11.79H277v8.32h-18.4c-6.26,0-11.14-.46-16.19-4.2-5.37-3.92-7.95-10.23-7.95-18.89,0-16.94,7.71-24.84,24.46-24.84H277v8.37H259.08c-7.92,0-11.87,3.6-12.3,11.11"/><path class="cls-1" d="M286.61,249.75H298v47.93h-11.4Z"/><path class="cls-1" d="M156.78,166.73h0a1.09,1.09,0,0,0,.7,1h0a1.06,1.06,0,0,0,1.31-.51h0c8.81-12.69,48.37-71.4,56.47-107.16h0s4.32-17.32.11-29h0s-6-22.34-30.25-28.23h0A135,135,0,0,0,170.75,0h0s-27.13,34.94-14,166.73Z"/><path class="cls-1" d="M21.43,89c1,18.73,15.09,29.84,15.09,29.84h0C59.24,141,114.25,169,127,175.33h0c.17,0,.83.25,1.22-.25h0a1,1,0,0,0,.26-1.09h0C93.49,97.52,45.63,39.53,45.63,39.53h0S19.57,64.27,21.43,89Z"/><path class="cls-1" d="M27,196.36c9.92,17.69,26.66,31.46,44.08,27.23h0c12-3,39.25-22,48.22-28.43h0c.7-.61.5-1.13.5-1.13h0a1.3,1.3,0,0,0-1.21-.82h0Z"/><path class="cls-1" d="M5.1,155.26A54.47,54.47,0,0,0,34,182.62h0a55.57,55.57,0,0,0,17.51,3.83h0c1.37.25,54.46,0,68.67,0h0a1.19,1.19,0,0,0,.95-.62h0c.44-.72-.33-1.39-.33-1.39h0C80.58,157.3,2.63,115.64,2.63,115.64h0A54.17,54.17,0,0,0,5.1,155.25Z"/><path class="cls-1" d="M112.46,2.81a42.46,42.46,0,0,0-30,28.26h0c-4.42,13.84.13,29,.13,29h0C90.67,96,130.51,155,139.08,167.4h0c.62.61,1.07.38,1.07.38h0a1.14,1.14,0,0,0,.88-1.13h0C154.18,34.92,127.19,0,127.19,0h0C123.19.37,112.46,2.81,112.46,2.81Z"/><path class="cls-1" d="M179.2,193.25s-.81.11-1,.72h0a1.19,1.19,0,0,0,.36,1.21h0c8.73,6.3,35.29,24.87,48.11,28.48h0s23.67,8.07,44.21-27.24h0l-91.66-3.21h0Z"/><path class="cls-1" d="M177.16,184.37h0a1.24,1.24,0,0,0-.45,1.33h0s.39.68.93.68h0c14.4,0,68.95.06,70.34-.18h0a54.61,54.61,0,0,0,15.75-3.62h0s19.4-6.19,29.46-28.21h0a55.29,55.29,0,0,0,2-39h0S217.39,157.2,177.16,184.37Z"/><path class="cls-1" d="M169.55,173.62h0a1.25,1.25,0,0,0,.23,1.47h0a1.17,1.17,0,0,0,1.23.11h0c13.13-6.52,67.69-34.27,90.3-56.31h0s14.31-11.49,15.08-29.95h0c1.65-25.65-24.13-49.4-24.13-49.4h0S204.51,97.35,169.55,173.62Z"/></g></g></g></g></svg>