<?xml version="1.0" encoding="utf-8"?><svg xmlns="http://www.w3.org/2000/svg" viewBox="0 0 72 12.61"><defs><style>.cls-1{fill:#0051ba;}</style></defs><title>Ресурс 13</title><g id="Слой_2" data-name="Слой 2"><g id="Слой_1-2" data-name="Слой 1"><g id="ikea-clr"><path id="Shape" class="cls-1" d="M.05,0a1,1,0,0,1,.4.84l0,10.57c0,.12.07,1-.41,1.2H8.82c-.48-.24-.45-1.08-.45-1.2L8.34.84A1,1,0,0,1,8.74,0ZM12.42,0a1,1,0,0,1,.35.84V11.41c0,.12,0,1-.46,1.2h8.51c-.48-.24-.37-1.08-.37-1.2v-4l2.66,4.32c.24.6,0,.84,0,.84h10s-.16-.12-.36-.24a2.56,2.56,0,0,1-.84-.84l-4-6.37L31,.72A2.24,2.24,0,0,1,31.88,0H23.35a.68.68,0,0,1,0,1L20.46,5V.84A1,1,0,0,1,20.83,0ZM34.78,0a1,1,0,0,1,.35.84l0,10.57c0,.12,0,1-.5,1.2H49.22V8.17a2,2,0,0,1-1.36.6H42.58V7.69h4.09c.23,0,1,.12,1.07.36l0-3.84a1.89,1.89,0,0,1-1.11.36H42.58V3.48H47.9a1.79,1.79,0,0,1,1.28.6l0-4.08ZM55.18,0a.92.92,0,0,1,.2,1.08l-4,10.57a2.81,2.81,0,0,1-.65,1h7.49a1.28,1.28,0,0,1-.21-1l.61-1.56h3.72l.56,1.56a.94.94,0,0,1-.2,1H72a3.61,3.61,0,0,1-.78-1L67,1.08A1,1,0,0,1,67.19,0Zm5.17,4.8h0s0,.08,0,.12a4.94,4.94,0,0,0,.1.6c.12.12,1,2.28,1,2.28H59.27s.95-2.16,1-2.28a1.81,1.81,0,0,0,.14-.6S60.35,4.8,60.35,4.8Z"/></g></g></g></svg>