<?xml version="1.0" encoding="utf-8"?><svg xmlns="http://www.w3.org/2000/svg" viewBox="0 0 175.75 105.58"><defs><style>.cls-1{fill:#afadbe;}</style></defs><title>Ресурс 6</title><g id="Слой_2" data-name="Слой 2"><g id="Layer_1" data-name="Layer 1"><polygon class="cls-1" points="18.18 105.58 156.72 105.58 87.82 36.69 18.18 105.58"/><polygon class="cls-1" points="15.54 102.19 26.33 91.67 22.74 87.98 15.96 94.59 4.01 82.35 0 86.27 15.54 102.19"/><polygon class="cls-1" points="28.7 89.27 39.76 78.48 36.72 75.36 29.7 82.22 26.33 78.76 31.95 73.27 28.78 70.01 23.15 75.5 20.26 72.54 27.05 65.91 24.02 62.8 12.99 73.56 28.7 89.27"/><path class="cls-1" d="M64.9,38.11c-4.46-4.57-12.2-4-15.92-.39S43.34,48.6,48.61,54c5.78,5.93,12.66,3.77,16.39.14C70.49,48.78,68.53,41.83,64.9,38.11ZM61.62,51c-2.47,2.41-5.48,1.75-8.93-1.78-2.9-3-2.72-6-.62-8,1.45-1.41,4.39-2.68,7.89.91C64,46.23,64.09,48.6,61.62,51Z"/><polygon class="cls-1" points="77.34 41.9 81.42 37.92 75.28 31.63 71.6 16.34 66.93 20.91 69.36 29.58 61.14 26.55 56.73 30.86 70.74 35.36 77.34 41.9"/><path class="cls-1" d="M55.58,63.15s-9.93-3.39-10.4-3.31c-.15,0,2.13-6.06-3-8.75a6.76,6.76,0,0,0-7.62,1.4l-8.13,8L42.09,76.29l4.15-4-8.48-8.69,13.71,3.61ZM40.2,61a28.23,28.23,0,0,1-2.62,2.42l-3.74-3.83a32.39,32.39,0,0,1,3-2.87,2.44,2.44,0,0,1,3.27.15A2.61,2.61,0,0,1,40.2,61Z"/><polygon class="cls-1" points="76.07 19.36 72.44 15.7 88.27 0 93.45 5.22 87.75 16.45 99.38 11.2 104.36 16.22 88.53 31.92 84.71 28.07 93.07 19.79 81.64 24.97 79.28 22.59 84.59 11.17 76.07 19.36"/><polygon class="cls-1" points="103.56 47.07 92.58 36 108.41 20.3 119.42 31.4 116.22 34.57 109.32 27.62 106.75 30.18 112.18 35.66 108.85 38.96 103.45 33.51 99.99 36.94 106.82 43.83 103.56 47.07"/><polygon class="cls-1" points="139.75 51.9 143.83 56.01 131.85 67.89 138.55 74.65 134.7 78.47 123.92 67.6 139.75 51.9"/><polygon class="cls-1" points="137.55 81.34 153.38 65.64 157.36 69.66 141.53 85.36 137.55 81.34"/><polygon class="cls-1" points="148.75 92.64 145.02 88.88 160.86 73.18 166.26 78.63 161.64 94.93 172.12 84.54 175.75 88.19 159.92 103.89 155.19 99.13 159.26 82.02 148.75 92.64"/><path class="cls-1" d="M132.59,44.69,123,35,107.12,50.66l4.08,4.11,8.65-8.58-3.11,14.16,4.18,4.21S124.2,54.44,124.3,54c0,0,3.57,2,7.48-1.4C131.78,52.61,135.54,49,132.59,44.69Zm-5.87,4.59a3,3,0,0,1-3.8-.44l-2.78-2.94,3.79-3.76,2.91,2.94C127.16,45.41,129.2,46.95,126.72,49.28Z"/></g></g></svg>