<?xml version="1.0" encoding="utf-8"?><svg xmlns="http://www.w3.org/2000/svg" viewBox="0 0 71.39 20.96"><defs><style>.cls-1{fill:#afadbe;}</style></defs><title>Ресурс 8</title><g id="Слой_2" data-name="Слой 2"><g id="Слой_1-2" data-name="Слой 1"><g id="melon-clr"><g id="melon"><path id="Shape" class="cls-1" d="M27.22,5.77V8.38h-6.7v3.22h6.7v2.61H17.73V0h9.49V2.65h-6.7V5.77Zm3.22,8.45V0h2.79V11.61h6.41v2.61ZM7.13,7.13,3.94,3.94,0,0V14.22H2.79V6.81l4.33,4.3.32-.32,4-4v7.41h2.79V0ZM69,0h-.47V8.1l-9-8.1V14.22H62.4V6.13l9,8.1V0ZM2,19.16v.47H.47V21H0V17.84H2v.47H.47v.86Zm10-1.29a1.69,1.69,0,0,1,1.15.5l-.29.29A1.31,1.31,0,0,0,12,18.3h0c-.25,0-.61.14-.61.43s.21.32.57.36l.29,0c.61.07,1,.32,1,.9s-.5.9-1.15.93h0a1.41,1.41,0,0,1-1.25-.64L11.1,20a1.06,1.06,0,0,0,1,.47h0c.39,0,.68-.18.68-.47s-.25-.43-.61-.47l-.29,0c-.61-.07-1-.29-1-.79a1,1,0,0,1,1.07-.9ZM18.52,21V19.63H17.09V21h-.47V17.84h.47v1.33h1.43V17.84H19V21Zm4.94-.47V21H23V17.84h.47v2.65Zm4.19-1.07a1.08,1.08,0,1,0,1.07-1.11A1.09,1.09,0,0,0,27.65,19.41Zm2.61,0a1.54,1.54,0,1,1-1.54-1.54A1.53,1.53,0,0,1,30.27,19.41Zm20.1.29h.57c.47,0,.86-.21.86-.68s-.39-.68-.86-.68h-.57Zm.54-1.86A1.17,1.17,0,0,1,52.23,19a1,1,0,0,1-.72,1,1.46,1.46,0,0,1,.5.54l.29.43h-.54l-.21-.36c-.25-.39-.36-.47-.68-.47h-.5V21H49.9V17.84Zm5.48,1.58a1.08,1.08,0,1,0,1.07-1.11A1.06,1.06,0,0,0,56.38,19.41Zm2.61,0a1.54,1.54,0,1,1-1.54-1.54A1.55,1.55,0,0,1,59,19.41Zm6.05.21a1.26,1.26,0,1,1-2.51,0V17.87H63v1.76c0,.61.32.9.79.9a.79.79,0,0,0,.79-.9V17.87h.47Zm4.94.11c.47,0,.9-.21.9-.72s-.43-.72-.9-.72h-.54v1.43Zm0-1.9A1.2,1.2,0,0,1,71.32,19c0,.72-.54,1.15-1.36,1.15h-.54V21H69V17.84ZM5.84,19.92l.54-1,.54,1Zm1.58,1h.5L6.38,17.87,4.84,21h.5l.29-.57h1.5Zm28.41-3.08h-.11v2l-2.29-2V21h.47v-2l2.29,2V17.87Zm8.92,1.29v.47h1.07a1.07,1.07,0,1,1-.14-.9l.39-.25a1.61,1.61,0,0,0-1.29-.68,1.54,1.54,0,1,0,1.54,1.54.7.7,0,0,0,0-.25H44.74Z"/><path id="Path" class="cls-1" d="M57.13,7.13c0,3.94-3.62,7.13-8.1,7.13S41,11.07,41,7.13,44.56,0,49,0s8.1,3.19,8.1,7.13"/></g></g></g></g></svg>