<?xml version="1.0" encoding="utf-8"?>
<!-- Generator: Adobe Illustrator 22.1.0, SVG Export Plug-In . SVG Version: 6.00 Build 0)  -->
<svg version="1.1" id="Слой_1" xmlns="http://www.w3.org/2000/svg" xmlns:xlink="http://www.w3.org/1999/xlink" x="0px" y="0px"
	 viewBox="0 0 206.1 46.4" style="enable-background:new 0 0 206.1 46.4;" xml:space="preserve">
<style type="text/css">
	.st0{fill:#FF0D29;}
	.st1{fill:#FFFFFF;}
	.st2{fill:#020C14;}
</style>
<g>
	<g id="Icon-30">
		<path id="Background-6" class="st0" d="M0,1.3h43v44H0V1.3z"/>
		<path id="Icon-31" class="st1" d="M31,31.3c-0.1,0,0-6,0-6l-2,1v5c-2.5-0.2-5.4,2.6-7,3v-28c0,0,3.6-2.4,7-2v19l2-1v-13
			c1-0.1,5.4-1.3,8-4v23C36.7,30.2,33.9,31.2,31,31.3z M13,20.3l-1.1,1.2L11,22.3v16c-1.5,2.5-4.1,4-7,4v-22
			c2.8-0.3,5.6-1.4,7.9-3.1c0.4-0.3,0.7-0.7,1-1.1c0-1.7,0.1-4.1,0.1-5.8c1.9-1.9,4.4-3.3,7-4v28c0,0-5.2,1.8-7,4V20.3z"/>
	</g>
	<path id="Name-2" class="st2" d="M201.7,9.1h-1.6c-0.3,0-0.7,0-1,0.1c-0.1,0.1-0.2,0.2-0.2,0.3c0,0.3,0.2,0.6,0.4,0.8
		c0.7,0.7,1.4,1.3,2.2,1.7c-0.6,1.4-1.4,2.8-2.2,4.2c-0.7,1.2-1.5,2.3-2.4,3.2l-0.2,0.2l-3.2-2.1l0.3-0.3c0.5-0.6,1.1-1.3,1.5-2
		c0.4-0.7,0.9-1.5,1.5-2.5c-0.6-0.4-1.2-0.9-1.6-1.6c-0.4-0.6-0.6-1.4-0.6-2.1c0-1.2,0.6-2.3,1.7-2.8c0.7-0.3,1.5-0.5,2.3-0.5h6.9
		v12.1h-3.9V9.1z M184,15.7c-1.4-1.4-2.1-3.3-2.1-5.2c-0.2-1.9,0.9-3.6,2.7-4.3c0.8-0.3,1.6-0.4,2.4-0.4h5.9v12.1H189
		C187.1,17.9,185.3,17.1,184,15.7z M189,9.1h-1.2c-0.5,0-0.9,0.1-1.3,0.3c-0.4,0.3-0.7,0.8-0.6,1.4c0,1.2,0.6,2.4,1.5,3.2
		c0.5,0.4,1,0.6,1.6,0.7L189,9.1L189,9.1z M177.2,17.9l-2.9-6.7l2.4-5.4h4.2l-2.5,5.3l3.1,6.8L177.2,17.9L177.2,17.9z M170.4,5.8
		h3.9v12.1h-3.9V5.8z M172.9,32.4c0.7,0.5,1.1,1.1,1.4,1.9c0.2,0.6,0.3,1.2,0.3,1.8c0,1-0.1,2-0.4,3c-0.3,0.9-0.6,1.7-1.1,2.5
		c-0.5,0.7-1.1,1.4-1.8,1.9c-1.7,1.1-4,0.9-5.5-0.5c-0.9-0.9-1.6-1.9-2.1-3.1c-0.5-1.2-0.7-2.5-0.7-3.8c0-0.6,0.1-1.2,0.3-1.8
		c0.3-0.8,0.7-1.4,1.4-1.9c1-0.7,2.1-1,3.3-0.9h1.7C170.8,31.5,171.9,31.8,172.9,32.4z M168.7,34.8c-1.2,0-1.9,0.6-1.9,1.7
		c0,0.7,0.1,1.4,0.3,2.1c0.2,0.6,0.4,1.1,0.8,1.6c0.2,0.5,0.6,0.7,1.1,0.5c0.3-0.1,0.5-0.3,0.5-0.5c0.4-0.5,0.6-1,0.8-1.6
		c0.2-0.7,0.3-1.4,0.3-2.1C170.6,35.4,170,34.8,168.7,34.8L168.7,34.8z M166,14.1c0.5,0.4,1.1,0.6,1.7,0.6h1.4l-1,3.3h-0.6
		c-1.3,0-2.6-0.4-3.6-1.1c-1-0.7-1.9-1.6-2.5-2.7c-0.6-1.1-1-2.4-0.9-3.7c-0.2-1.9,0.9-3.6,2.7-4.3c0.8-0.3,1.6-0.4,2.4-0.4h2.4
		l1,3.3h-2.6c-0.5,0-0.9,0.1-1.3,0.3c-0.4,0.3-0.7,0.8-0.6,1.4c0,0.7,0.2,1.3,0.5,1.9C165.1,13.2,165.5,13.7,166,14.1L166,14.1z
		 M155.6,15.9c0,0.5,0,1,0.2,1.5l0.1,0.3l-3.4,2.1l-0.2-0.3c-0.4-0.8-0.6-1.7-0.5-2.6V5.8h7.8l0.9,3.4h-4.8L155.6,15.9L155.6,15.9z
		 M143,18.2v3.9h-3.9V5.8h5.9c1.5-0.1,2.9,0.4,4,1.4c0.8,0.9,1.2,2.1,1.1,3.2c0,1.7-0.6,3.4-1.8,4.8C147,16.8,145.1,17.8,143,18.2
		L143,18.2z M145.6,9.4c-0.4-0.2-0.9-0.3-1.3-0.3H143v5.6c1.2-0.2,2.3-1,2.7-2.1c0.3-0.6,0.4-1.1,0.4-1.8
		C146.2,10.2,146,9.7,145.6,9.4L145.6,9.4z M128.5,22l1.9-5.2l-4.3-11h4.6l1.8,5.7h0l1.8-5.7h4.3L132.7,22H128.5L128.5,22z
		 M119.9,3.6c-0.5,0.1-0.9,0.3-1.2,0.7c-0.4,0.4-0.6,1-0.6,1.5c0.5-0.1,0.9-0.2,1.4-0.2c0.7-0.1,1.2-0.1,1.6-0.1
		c1.3-0.1,2.6,0.3,3.7,1.2c0.9,0.9,1.4,2.1,1.3,3.4c0,1-0.1,2-0.4,3c-0.3,0.9-0.6,1.7-1.1,2.5c-0.5,0.7-1.1,1.4-1.8,1.9
		c-0.7,0.5-1.6,0.7-2.5,0.7c-1.1,0-2.2-0.4-3-1.2c-0.9-0.9-1.6-1.9-2-3.1c-0.5-1.2-0.7-2.5-0.8-3.9c0-1.2,0-1.9,0-2
		c0-1.5,0.1-3.1,0.5-4.6c0.3-1.1,1-2,2-2.6c1.2-0.7,2.6-1,4-0.9h3.4l1,3.5H122C121.3,3.5,120.6,3.5,119.9,3.6L119.9,3.6z
		 M118.7,12.6c0.2,0.6,0.4,1.1,0.8,1.6c0.2,0.5,0.6,0.7,1.1,0.5c0.3-0.1,0.5-0.3,0.5-0.5c0.4-0.5,0.6-1,0.8-1.6
		c0.2-0.7,0.3-1.4,0.3-2.1c0-1.1-0.6-1.7-1.9-1.7s-1.9,0.6-1.9,1.7C118.4,11.2,118.5,11.9,118.7,12.6z M106.4,18.2v3.9h-3.9V5.8h5.9
		c1.5-0.1,2.9,0.4,4,1.4c0.8,0.9,1.2,2.1,1.1,3.2c0,1.7-0.6,3.4-1.8,4.8C110.4,16.8,108.5,17.8,106.4,18.2L106.4,18.2z M109,9.4
		c-0.4-0.2-0.9-0.3-1.3-0.3h-1.2v5.6c1.2-0.2,2.3-1,2.7-2.1c0.3-0.6,0.4-1.1,0.4-1.8C109.7,10.2,109.4,9.7,109,9.4L109,9.4z
		 M104.1,34.8c-0.1,1-0.6,1.9-1.4,2.5c0.7,0.6,1.3,1.3,1.7,2.2c0.2,0.4,0.3,0.8,0.3,1.3c0,0.9-0.4,1.7-1.1,2.2c-1,0.7-2.2,1-3.4,0.9
		h-6.6V31.8h6.6c1.1-0.1,2.1,0.2,3,0.9C103.8,33.2,104.1,34,104.1,34.8L104.1,34.8z M100,39.3c-0.3-0.3-0.7-0.6-1.1-0.8l-1.2-0.8
		c0.6-0.4,1.2-0.8,1.7-1.3c0.2-0.2,0.4-0.4,0.5-0.7c0-0.5-0.4-0.6-1.1-0.6h-1.3v5.6h1.9c0.7,0,1-0.2,1-0.6
		C100.4,39.8,100.2,39.5,100,39.3z M98.3,13.3c-0.5,0.3-1.1,0.7-1.7,1.1c0.8,0.2,1.5,0.2,2.3,0.2h1.5l-1,3.3h-2.3
		c-1.9,0-3.7-0.8-5-2.2c-1.4-1.4-2.1-3.3-2.1-5.2c0-2.3,0.7-3.7,2.4-4.4c1-0.4,2.1-0.6,3.2-0.5h0.8c3.1,0,4.6,1.1,4.6,3.3
		c0,1.2-0.5,2.4-1.3,3.3C99.3,12.6,98.8,13,98.3,13.3z M96.7,8.9c-0.3-0.1-0.5-0.1-0.8-0.1C95,8.7,94.1,9.3,94,10.1
		c0,0.2,0,0.3,0,0.5c0,0.5,0.1,1,0.3,1.4c0.7-0.4,1.3-0.8,1.9-1.2c0.5-0.3,0.8-0.8,0.9-1.4C97.1,9.2,96.9,9,96.7,8.9z M86.4,17.9
		h-3.9V9.2H79c-0.1,1.1-0.5,2.2-1.3,3c-0.4,0.4-0.8,0.8-1.3,1.2c-0.5,0.3-1.1,0.7-1.7,1.1c0.8,0.2,1.5,0.2,2.3,0.2h1.5l-1,3.3h-2.3
		c-1.9,0-3.7-0.8-5-2.2c-1.4-1.4-2.1-3.3-2.1-5.2c0-2.3,0.7-3.7,2.4-4.4c1-0.4,2.1-0.6,3.2-0.5h0.8c3.1,0,4.6,1.1,4.6,3.3
		C79,9,79,9,79,9.1l0.9-3.3h9.2L90,9.2h-3.6L86.4,17.9L86.4,17.9z M74.7,8.9c-0.3-0.1-0.5-0.1-0.8-0.1C73,8.7,72.2,9.3,72,10.1
		c0,0.2,0,0.3,0,0.5c0,0.5,0.1,1,0.3,1.4c0.7-0.4,1.3-0.8,1.9-1.2c0.5-0.3,0.8-0.8,0.9-1.4C75.1,9.2,74.9,9,74.7,8.9L74.7,8.9z
		 M61.8,36.4h-4.5v5.2c0,0.6,0,1,0,1.4c0,0.3,0.1,0.7,0.2,1l-3.9,2.5c-0.5-1.1-0.7-2.4-0.7-3.6V27.6h4.3v5.2h4.5v-5.2h4.3v16.3h-4.3
		L61.8,36.4L61.8,36.4z M61.8,5.3h-4.5v10.3c0,0.6,0,1,0,1.4c0,0.3,0.1,0.7,0.2,1l-3.9,2.5c-0.5-1.1-0.7-2.4-0.7-3.6V1.6h13.2v16.3
		h-4.3L61.8,5.3L61.8,5.3z M73.7,31.5h0.8c3.1,0,4.6,1.1,4.6,3.3c0,1.2-0.5,2.4-1.3,3.3c-0.4,0.4-0.8,0.8-1.3,1.2
		c-0.5,0.3-1.1,0.7-1.7,1.1c0.8,0.2,1.5,0.2,2.3,0.2h1.5l-1,3.3h-2.3c-1.9,0-3.7-0.8-5-2.2c-1.4-1.4-2.1-3.3-2.1-5.2
		c0-2.3,0.7-3.7,2.4-4.4C71.6,31.7,72.7,31.5,73.7,31.5z M72.4,38c0.7-0.4,1.3-0.8,1.9-1.2c0.5-0.3,0.8-0.8,0.9-1.4
		c0-0.2-0.1-0.5-0.4-0.5c-0.3-0.1-0.5-0.1-0.8-0.1c-0.9-0.1-1.7,0.5-1.9,1.3c0,0.2,0,0.3,0,0.5C72.1,37.1,72.2,37.6,72.4,38L72.4,38
		z M80.5,39.5c0-1.4,0.3-2.8,1-4.1c0.6-1.1,1.5-2,2.7-2.7c1.5-0.7,3.1-1,4.8-1h2.1v8.8h1.3l-0.9,3.3h-11l-0.9-3.3h1.1
		C80.5,40.3,80.5,39.9,80.5,39.5L80.5,39.5z M84.5,40.6h2.7v-5.4c-1.9,0.4-2.8,1.8-2.8,4C84.4,39.7,84.4,40.2,84.5,40.6L84.5,40.6z
		 M111.9,31.8c-0.1,0.3-0.3,0.7-0.5,1.2l-0.5,1.3c-0.1,0.3-0.3,0.8-0.4,1.3s-0.3,1-0.4,1.4c-0.1,0.5-0.2,1-0.2,1.5
		c0,1.2,0.5,1.9,1.5,2c0.4,0,0.8,0.1,1.2,0.1h0.4v-8.8h3.9v12.1h-6.2c-3.3,0-4.9-1.7-4.9-5c0.2-2.5,0.9-4.9,2.1-7L111.9,31.8
		L111.9,31.8z M118.6,31.8h4.4l1.6,5.5l-2,6.6h-4.5l2.3-6.7L118.6,31.8z M128.6,43.9h-3.9V31.8h3.9L128.6,43.9L128.6,43.9z
		 M134.6,31.8l-1.8,5.4l2.4,6.7h-4.6l-2-6.6l1.6-5.5L134.6,31.8L134.6,31.8z M142,31.8c-0.1,0.3-0.3,0.7-0.5,1.2l-0.5,1.3
		c-0.1,0.3-0.3,0.8-0.4,1.3s-0.3,1-0.4,1.4c-0.1,0.5-0.2,1-0.2,1.5c0,1.2,0.5,1.9,1.5,2c0.4,0,0.8,0.1,1.2,0.1h0.4v-8.8h3.9v12.1
		h-6.2c-3.3,0-4.9-1.7-4.9-5c0.2-2.5,0.9-4.9,2.1-7L142,31.8L142,31.8z M155.2,34.9l2.5-3.1h3.5v12.1h-3.9v-6.3l-2.1,2.7l-2.1-2.7
		v6.3h-3.9V31.8h3.5L155.2,34.9z M180.6,31.8h2.4l1,3.3h-2.6c-0.5,0-0.9,0.1-1.3,0.3c-0.4,0.3-0.7,0.8-0.6,1.4
		c0,0.7,0.2,1.3,0.5,1.9c0.3,0.6,0.7,1,1.2,1.4c0.5,0.4,1.1,0.6,1.7,0.6h1.4l-1,3.3h-0.6c-1.3,0-2.6-0.4-3.6-1.1
		c-1-0.7-1.9-1.6-2.5-2.7c-0.6-1.1-1-2.4-0.9-3.7c-0.2-1.9,0.9-3.6,2.7-4.3C179,31.9,179.8,31.8,180.6,31.8L180.6,31.8z M194.6,31.8
		l0.9,3.3h-3.6v8.7h-3.9v-8.7h-3.6l0.9-3.3H194.6L194.6,31.8z M200.2,34.5c1.2,0.5,2.4,1.1,3.4,1.8c0.7,0.5,1.4,1.1,1.9,1.8
		c0.4,0.6,0.6,1.3,0.6,2c0,1.3-0.7,2.6-1.9,3.2c-0.7,0.4-1.6,0.6-2.4,0.6h-5.4V31.8h3.9L200.2,34.5L200.2,34.5z M200.2,40.7h0.7
		c0.8,0,1.2-0.2,1.2-0.5c0-0.3-0.2-0.6-0.4-0.8c-0.5-0.4-1-0.7-1.5-1V40.7L200.2,40.7z"/>
</g>
</svg>
