<?xml version="1.0" encoding="utf-8"?><svg xmlns="http://www.w3.org/2000/svg" viewBox="0 0 206.1 46.62"><defs><style>.cls-1{fill:#afadbe;}.cls-2{fill:#fff;}</style></defs><title>Ресурс 9</title><g id="Слой_2" data-name="Слой 2"><g id="Слой_1-2" data-name="Слой 1"><g id="Icon-30"><path id="Background-6" class="cls-1" d="M0,1.42H43v44H0Z"/><path id="Icon-31" class="cls-2" d="M31,31.42c-.1,0,0-6,0-6l-2,1v5c-2.5-.2-5.4,2.6-7,3v-28s3.6-2.4,7-2v19l2-1v-13a16.11,16.11,0,0,0,8-4v23A13.19,13.19,0,0,1,31,31.42Zm-18-11-1.1,1.2-.9.8v16a8.1,8.1,0,0,1-7,4v-22a16.43,16.43,0,0,0,7.9-3.1,5.24,5.24,0,0,0,1-1.1c0-1.7.1-4.1.1-5.8a15.86,15.86,0,0,1,7-4v28s-5.2,1.8-7,4Z"/></g><path id="Name-2" class="cls-1" d="M201.7,9.22h-1.6a3.4,3.4,0,0,0-1,.1c-.1.1-.2.2-.2.3a1.23,1.23,0,0,0,.4.8,8.68,8.68,0,0,0,2.2,1.7,42.32,42.32,0,0,1-2.2,4.2,15.74,15.74,0,0,1-2.4,3.2l-.2.2-3.2-2.1.3-.3a14.91,14.91,0,0,0,1.5-2c.4-.7.9-1.5,1.5-2.5a4.89,4.89,0,0,1-1.6-1.6,3.94,3.94,0,0,1-.6-2.1,3,3,0,0,1,1.7-2.8,5.93,5.93,0,0,1,2.3-.5h6.9v12.1h-3.9V9.22ZM184,15.82a7.34,7.34,0,0,1-2.1-5.2,4.12,4.12,0,0,1,2.7-4.3,6.72,6.72,0,0,1,2.4-.4h5.9V18H189A6.82,6.82,0,0,1,184,15.82Zm5-6.6h-1.2a2.77,2.77,0,0,0-1.3.3,1.45,1.45,0,0,0-.6,1.4,4.41,4.41,0,0,0,1.5,3.2,3.29,3.29,0,0,0,1.6.7V9.22ZM177.2,18l-2.9-6.7,2.4-5.4h4.2l-2.5,5.3,3.1,6.8Zm-6.8-12.1h3.9V18h-3.9Zm2.5,26.6a3.81,3.81,0,0,1,1.4,1.9,5.66,5.66,0,0,1,.3,1.8,10.32,10.32,0,0,1-.4,3,11.18,11.18,0,0,1-1.1,2.5,8.13,8.13,0,0,1-1.8,1.9,4.52,4.52,0,0,1-5.5-.5,9.45,9.45,0,0,1-2.1-3.1,9.86,9.86,0,0,1-.7-3.8,5.66,5.66,0,0,1,.3-1.8,3.81,3.81,0,0,1,1.4-1.9,4.89,4.89,0,0,1,3.3-.9h1.7A6.2,6.2,0,0,1,172.9,32.52Zm-4.2,2.4c-1.2,0-1.9.6-1.9,1.7a7.61,7.61,0,0,0,.3,2.1,4.81,4.81,0,0,0,.8,1.6.78.78,0,0,0,1.1.5c.3-.1.5-.3.5-.5a4.81,4.81,0,0,0,.8-1.6,7.61,7.61,0,0,0,.3-2.1c0-1.1-.6-1.7-1.9-1.7ZM166,14.22a2.72,2.72,0,0,0,1.7.6h1.4l-1,3.3h-.6a6.38,6.38,0,0,1-3.6-1.1,8.09,8.09,0,0,1-2.5-2.7,6.78,6.78,0,0,1-.9-3.7,4.12,4.12,0,0,1,2.7-4.3,6.72,6.72,0,0,1,2.4-.4H168l1,3.3h-2.6a2.77,2.77,0,0,0-1.3.3,1.45,1.45,0,0,0-.6,1.4,4.14,4.14,0,0,0,.5,1.9,2.63,2.63,0,0,0,1,1.4ZM155.6,16a3.89,3.89,0,0,0,.2,1.5l.1.3-3.4,2.1-.2-.3a4.68,4.68,0,0,1-.5-2.6V5.92h7.8l.9,3.4h-4.8l-.1,6.7ZM143,18.32v3.9h-3.9V5.92H145a5.33,5.33,0,0,1,4,1.4,4.34,4.34,0,0,1,1.1,3.2,7.36,7.36,0,0,1-1.8,4.8,8.86,8.86,0,0,1-5.3,3Zm2.6-8.8a3.08,3.08,0,0,0-1.3-.3H143v5.6a3.47,3.47,0,0,0,2.7-2.1,3.66,3.66,0,0,0,.4-1.8,1.39,1.39,0,0,0-.5-1.4Zm-17.1,12.6,1.9-5.2-4.3-11h4.6l1.8,5.7h0l1.8-5.7h4.3l-5.9,16.2Zm-8.6-18.4a1.85,1.85,0,0,0-1.2.7,2.2,2.2,0,0,0-.6,1.5,6.75,6.75,0,0,1,1.4-.2,10.36,10.36,0,0,1,1.6-.1,5.17,5.17,0,0,1,3.7,1.2,4.3,4.3,0,0,1,1.3,3.4,10.32,10.32,0,0,1-.4,3,11.18,11.18,0,0,1-1.1,2.5,8.13,8.13,0,0,1-1.8,1.9,4.3,4.3,0,0,1-2.5.7,4.23,4.23,0,0,1-3-1.2,7.89,7.89,0,0,1-2-3.1,12.3,12.3,0,0,1-.8-3.9v-2a18,18,0,0,1,.5-4.6,4.33,4.33,0,0,1,2-2.6,7,7,0,0,1,4-.9h3.4l1,3.5H122c-.7.1-1.4.1-2.1.2Zm-1.2,9a4.81,4.81,0,0,0,.8,1.6.78.78,0,0,0,1.1.5c.3-.1.5-.3.5-.5a4.81,4.81,0,0,0,.8-1.6,7.61,7.61,0,0,0,.3-2.1c0-1.1-.6-1.7-1.9-1.7s-1.9.6-1.9,1.7A7.61,7.61,0,0,0,118.7,12.72Zm-12.3,5.6v3.9h-3.9V5.92h5.9a5.33,5.33,0,0,1,4,1.4,4.34,4.34,0,0,1,1.1,3.2,7.36,7.36,0,0,1-1.8,4.8,8.86,8.86,0,0,1-5.3,3Zm2.6-8.8a3.08,3.08,0,0,0-1.3-.3h-1.2v5.6a3.47,3.47,0,0,0,2.7-2.1,3.66,3.66,0,0,0,.4-1.8,1.45,1.45,0,0,0-.6-1.4Zm-4.9,25.4a3.55,3.55,0,0,1-1.4,2.5,6.2,6.2,0,0,1,1.7,2.2,2.77,2.77,0,0,1,.3,1.3,2.66,2.66,0,0,1-1.1,2.2,5.16,5.16,0,0,1-3.4.9H93.6V31.92h6.6a4.12,4.12,0,0,1,3,.9,2.72,2.72,0,0,1,.9,2.1Zm-4.1,4.5a4.44,4.44,0,0,0-1.1-.8l-1.2-.8a10.92,10.92,0,0,0,1.7-1.3,1.79,1.79,0,0,0,.5-.7c0-.5-.4-.6-1.1-.6H97.5v5.6h1.9c.7,0,1-.2,1-.6A1.23,1.23,0,0,0,100,39.42Zm-1.7-26c-.5.3-1.1.7-1.7,1.1a9,9,0,0,0,2.3.2h1.5l-1,3.3H97.1a6.82,6.82,0,0,1-5-2.2,7.34,7.34,0,0,1-2.1-5.2c0-2.3.7-3.7,2.4-4.4a7,7,0,0,1,3.2-.5h.8c3.1,0,4.6,1.1,4.6,3.3a5.07,5.07,0,0,1-1.3,3.3A7.55,7.55,0,0,1,98.3,13.42ZM96.7,9a2.2,2.2,0,0,0-.8-.1,1.7,1.7,0,0,0-1.9,1.3v.5a3.19,3.19,0,0,0,.3,1.4c.7-.4,1.3-.8,1.9-1.2a1.94,1.94,0,0,0,.9-1.4A.66.66,0,0,0,96.7,9ZM86.4,18H82.5V9.32H79a4.82,4.82,0,0,1-1.3,3,15.38,15.38,0,0,1-1.3,1.2c-.5.3-1.1.7-1.7,1.1a9,9,0,0,0,2.3.2h1.5l-1,3.3H75.2a6.82,6.82,0,0,1-5-2.2,7.34,7.34,0,0,1-2.1-5.2c0-2.3.7-3.7,2.4-4.4a7,7,0,0,1,3.2-.5h.8c3.1,0,4.6,1.1,4.6,3.3-.1,0-.1,0-.1.1l.9-3.3h9.2l.9,3.4H86.4V18ZM74.7,9a2.2,2.2,0,0,0-.8-.1,1.77,1.77,0,0,0-1.9,1.3v.5a3.19,3.19,0,0,0,.3,1.4c.7-.4,1.3-.8,1.9-1.2a1.94,1.94,0,0,0,.9-1.4.66.66,0,0,0-.4-.5ZM61.8,36.52H57.3v6.6a3.55,3.55,0,0,0,.2,1l-3.9,2.5a8.89,8.89,0,0,1-.7-3.6V27.72h4.3v5.2h4.5v-5.2H66V44H61.7l.1-7.5Zm0-31.1H57.3v11.7a3.55,3.55,0,0,0,.2,1l-3.9,2.5a8.89,8.89,0,0,1-.7-3.6V1.72H66.1V18H61.8V5.42Zm11.9,26.2h.8c3.1,0,4.6,1.1,4.6,3.3a5.07,5.07,0,0,1-1.3,3.3,15.38,15.38,0,0,1-1.3,1.2c-.5.3-1.1.7-1.7,1.1a9,9,0,0,0,2.3.2h1.5l-1,3.3H75.3a6.82,6.82,0,0,1-5-2.2,7.34,7.34,0,0,1-2.1-5.2c0-2.3.7-3.7,2.4-4.4A8.53,8.53,0,0,1,73.7,31.62Zm-1.3,6.5c.7-.4,1.3-.8,1.9-1.2a1.94,1.94,0,0,0,.9-1.4c0-.2-.1-.5-.4-.5a2.2,2.2,0,0,0-.8-.1,1.77,1.77,0,0,0-1.9,1.3v.5a3.19,3.19,0,0,0,.3,1.4Zm8.1,1.5a8.57,8.57,0,0,1,1-4.1,7,7,0,0,1,2.7-2.7,11.17,11.17,0,0,1,4.8-1h2.1v8.8h1.3l-.9,3.3h-11l-.9-3.3h1.1a1.5,1.5,0,0,1-.2-1Zm4,1.1h2.7v-5.4c-1.9.4-2.8,1.8-2.8,4a6.15,6.15,0,0,0,.1,1.4Zm27.4-8.8c-.1.3-.3.7-.5,1.2l-.5,1.3a10.38,10.38,0,0,0-.4,1.3c-.1.5-.3,1-.4,1.4a7.72,7.72,0,0,0-.2,1.5c0,1.2.5,1.9,1.5,2,.4,0,.8.1,1.2.1h.4v-8.8h3.9V44h-6.2c-3.3,0-4.9-1.7-4.9-5a16.8,16.8,0,0,1,2.1-7l4-.1Zm6.7,0H123l1.6,5.5-2,6.6h-4.5l2.3-6.7Zm10,12.1h-3.9V31.92h3.9V44Zm6-12.1-1.8,5.4,2.4,6.7h-4.6l-2-6.6,1.6-5.5Zm7.4,0c-.1.3-.3.7-.5,1.2l-.5,1.3a10.38,10.38,0,0,0-.4,1.3c-.1.5-.3,1-.4,1.4a7.72,7.72,0,0,0-.2,1.5c0,1.2.5,1.9,1.5,2,.4,0,.8.1,1.2.1h.4v-8.8H147V44h-6.2c-3.3,0-4.9-1.7-4.9-5a16.8,16.8,0,0,1,2.1-7l4-.1ZM155.2,35l2.5-3.1h3.5V44h-3.9v-6.3l-2.1,2.7-2.1-2.7V44h-3.9V31.92h3.5Zm25.4-3.1H183l1,3.3h-2.6a2.77,2.77,0,0,0-1.3.3,1.45,1.45,0,0,0-.6,1.4,4.14,4.14,0,0,0,.5,1.9,4.07,4.07,0,0,0,1.2,1.4,2.72,2.72,0,0,0,1.7.6h1.4l-1,3.3h-.6a6.38,6.38,0,0,1-3.6-1.1,8.09,8.09,0,0,1-2.5-2.7,6.78,6.78,0,0,1-.9-3.7,4.12,4.12,0,0,1,2.7-4.3,5.09,5.09,0,0,1,2.2-.4Zm14,0,.9,3.3h-3.6v8.7H188v-8.7h-3.6l.9-3.3Zm5.6,2.7a18.29,18.29,0,0,1,3.4,1.8,8.13,8.13,0,0,1,1.9,1.8,3.64,3.64,0,0,1-1.3,5.2,5,5,0,0,1-2.4.6h-5.4V31.92h3.9l-.1,2.7Zm0,6.2h.7c.8,0,1.2-.2,1.2-.5a1.23,1.23,0,0,0-.4-.8,13,13,0,0,0-1.5-1v2.3Z"/></g></g></svg>